<?xml version='1.0' encoding='utf-8'?>
<svg xmlns="http://www.w3.org/2000/svg" xmlns:dc="http://purl.org/dc/elements/1.1/" xmlns:ns2="http://creativecommons.org/ns#" xmlns:rdf="http://www.w3.org/1999/02/22-rdf-syntax-ns#" xmlns:xlink="http://www.w3.org/1999/xlink" width="399pt" height="62pt" viewBox="0 0 399 62" version="1.1">
 <metadata>
  <rdf:RDF>
   <ns2:Work>
    <dc:type rdf:resource="http://purl.org/dc/dcmitype/StillImage" />
    <dc:date>2026-10-07T03:38:55.996840</dc:date>
    <dc:format>image/svg+xml</dc:format>
    <dc:creator>
     <ns2:Agent>
      <dc:title>Matplotlib v3.11.2, https://matplotlib.org/</dc:title>
     </ns2:Agent>
    </dc:creator>
   </ns2:Work>
  </rdf:RDF>
 </metadata>
 <defs>
  <style type="text/css">*{stroke-linejoin: round; stroke-linecap: butt}</style>
 </defs>
 <g id="figure_1">
  <g id="text_1">
   
   <g style="fill: #202a35" transform="translate(0 38) scale(0.24 -0.24)">
    <defs>
     <path id="DejaVuSans-14" d="M 794 531  L 1825 531  L 1825 4091  L 703 3866  L 703 4441  L 1819 4666  L 2450 4666  L 2450 531  L 3481 531  L 3481 0  L 794 0  L 794 531  z " transform="scale(0.015625)" />
     <path id="DejaVuSans-Oblique-34a" d="M 1966 397  Q 2378 394 2578 159  Q 2794 -88 2722 -463  Q 2650 -822 2372 -1072  Q 2069 -1344 1559 -1344  Q 1606 -1109 1650 -872  Q 1863 -888 2022 -750  Q 2144 -641 2166 -525  Q 2197 -359 2125 -222  Q 2050 -91 1872 -91  Q -22 -91 316 1669  Q 616 3206 2609 4284  L 947 4284  L 1059 4863  L 3778 4863  L 3666 4284  Q 1181 3147 894 1669  Q 647 397 1966 397  z " transform="scale(0.015625)" />
     <path id="DejaVuSans-b" d="M 1984 4856  Q 1566 4138 1362 3434  Q 1159 2731 1159 2009  Q 1159 1288 1364 580  Q 1569 -128 1984 -844  L 1484 -844  Q 1016 -109 783 600  Q 550 1309 550 2009  Q 550 2706 781 3412  Q 1013 4119 1484 4856  L 1984 4856  z " transform="scale(0.015625)" />
     <path id="DejaVuSans-Oblique-56" d="M 3200 3397  L 3091 2853  Q 2863 2978 2609 3040  Q 2356 3103 2088 3103  Q 1634 3103 1373 2948  Q 1113 2794 1113 2528  Q 1113 2219 1719 2053  Q 1766 2041 1788 2034  L 1972 1978  Q 2547 1819 2739 1644  Q 2931 1469 2931 1166  Q 2931 609 2489 259  Q 2047 -91 1331 -91  Q 1053 -91 747 -37  Q 441 16 72 128  L 184 722  Q 500 559 806 475  Q 1113 391 1394 391  Q 1816 391 2080 572  Q 2344 753 2344 1031  Q 2344 1331 1650 1516  L 1591 1531  L 1394 1581  Q 956 1697 753 1886  Q 550 2075 550 2369  Q 550 2928 970 3256  Q 1391 3584 2113 3584  Q 2397 3584 2667 3537  Q 2938 3491 3200 3397  z " transform="scale(0.015625)" />
     <path id="DejaVuSans-c" d="M 513 4856  L 1013 4856  Q 1481 4119 1714 3412  Q 1947 2706 1947 2009  Q 1947 1309 1714 600  Q 1481 -109 1013 -844  L 513 -844  Q 928 -128 1133 580  Q 1338 1288 1338 2009  Q 1338 2731 1133 3434  Q 928 4138 513 4856  z " transform="scale(0.015625)" />
     <path id="DejaVuSans-20" d="M 678 2906  L 4684 2906  L 4684 2381  L 678 2381  L 678 2906  z M 678 1631  L 4684 1631  L 4684 1100  L 678 1100  L 678 1631  z " transform="scale(0.015625)" />
     <path id="DejaVuSansDisplay-e" d="M 691 6509  L 6156 6509  L 6156 -1738  L 5097 -1738  L 5097 5603  L 1747 5603  L 1747 -1738  L 691 -1738  L 691 6509  z " transform="scale(0.015625)" />
     <path id="DejaVuSans-Oblique-53" d="M 3175 2156  Q 3175 2616 2975 2859  Q 2775 3103 2400 3103  Q 2144 3103 1911 2972  Q 1678 2841 1497 2591  Q 1319 2344 1212 1994  Q 1106 1644 1106 1300  Q 1106 863 1306 627  Q 1506 391 1875 391  Q 2147 391 2380 519  Q 2613 647 2778 891  Q 2956 1147 3065 1494  Q 3175 1841 3175 2156  z M 1394 2969  Q 1625 3272 1939 3428  Q 2253 3584 2638 3584  Q 3175 3584 3472 3232  Q 3769 2881 3769 2247  Q 3769 1728 3584 1258  Q 3400 788 3053 416  Q 2822 169 2531 39  Q 2241 -91 1919 -91  Q 1547 -91 1294 64  Q 1041 219 916 525  L 556 -1331  L -19 -1331  L 922 3500  L 1497 3500  L 1394 2969  z " transform="scale(0.015625)" />
     <path id="DejaVuSans-c9c" d="M 678 2272  L 4684 2272  L 4684 1741  L 678 1741  L 678 2272  z " transform="scale(0.015625)" />
     <path id="DejaVuSans-ca8" d="M 2916 1091  Q 2819 1203 2666 1466  Q 2456 1091 2272 925  Q 2041 725 1681 725  Q 1259 725 981 1041  Q 688 1372 688 1919  Q 688 2444 981 2800  Q 1244 3116 1688 3116  Q 1916 3116 2084 3022  Q 2281 2919 2416 2741  Q 2541 2581 2666 2366  Q 2875 2741 3059 2906  Q 3291 3106 3650 3106  Q 4072 3106 4350 2791  Q 4644 2459 4644 1913  Q 4644 1388 4350 1031  Q 4088 716 3644 716  Q 3416 716 3247 809  Q 3078 894 2916 1091  z M 1647 1134  Q 2163 1134 2472 1884  Q 2075 2703 1647 2703  Q 1334 2703 1175 2478  Q 1003 2238 1003 1919  Q 1003 1569 1175 1353  Q 1350 1134 1647 1134  z M 3684 2697  Q 3219 2697 2859 1947  Q 3253 1128 3684 1128  Q 3997 1128 4156 1353  Q 4328 1594 4328 1913  Q 4328 2263 4156 2478  Q 3981 2697 3684 2697  z " transform="scale(0.015625)" />
     <path id="DejaVuSansDisplay-10" d="M 244 6509  L 5803 6509  L 5803 5656  L 1566 5656  L 4534 2488  L 1469 -888  L 5919 -888  L 5919 -1738  L 109 -1738  L 109 -1078  L 3316 2463  L 244 5728  L 244 6509  z " transform="scale(0.015625)" />
     <path id="DejaVuSans-Oblique-51" d="M 3566 2113  L 3156 0  L 2578 0  L 2988 2091  Q 3016 2238 3031 2350  Q 3047 2463 3047 2528  Q 3047 2791 2881 2937  Q 2716 3084 2419 3084  Q 1956 3084 1622 2776  Q 1288 2469 1184 1941  L 800 0  L 225 0  L 903 3500  L 1478 3500  L 1363 2950  Q 1603 3253 1940 3418  Q 2278 3584 2650 3584  Q 3113 3584 3367 3334  Q 3622 3084 3622 2631  Q 3622 2519 3608 2391  Q 3594 2263 3566 2113  z " transform="scale(0.015625)" />
     <path id="DejaVuSans-Oblique-350" d="M -84 -1331  L 856 3500  L 1434 3500  L 1009 1322  Q 997 1256 987 1175  Q 978 1094 978 1013  Q 978 722 1161 565  Q 1344 409 1684 409  Q 2147 409 2431 671  Q 2716 934 2816 1459  L 3213 3500  L 3788 3500  L 3266 809  Q 3253 750 3248 706  Q 3244 663 3244 628  Q 3244 531 3283 486  Q 3322 441 3406 441  Q 3438 441 3492 456  Q 3547 472 3647 513  L 3559 50  Q 3422 -19 3297 -55  Q 3172 -91 3053 -91  Q 2847 -91 2730 40  Q 2613 172 2613 403  Q 2438 153 2195 31  Q 1953 -91 1625 -91  Q 1334 -91 1117 43  Q 900 178 831 397  L 494 -1331  L -84 -1331  z " transform="scale(0.015625)" />
     <path id="DejaVuSans-Oblique-357" d="M 2219 3044  Q 1744 3044 1422 2700  Q 1081 2341 969 1747  Q 844 1119 1044 756  Q 1241 397 1706 397  Q 2166 397 2503 759  Q 2844 1122 2966 1747  Q 3075 2319 2881 2700  Q 2700 3044 2219 3044  z M 2309 3503  L 4219 3500  L 4106 2925  L 3463 2925  Q 3706 2438 3575 1747  Q 3406 888 2884 400  Q 2359 -91 1609 -91  Q 856 -91 525 400  Q 194 888 363 1747  Q 528 2609 1050 3097  Q 1484 3503 2309 3503  z " transform="scale(0.015625)" />
     <path id="DejaVuSans-21" d="M 678 3150  L 678 3719  L 4684 2266  L 4684 1747  L 678 294  L 678 863  L 3897 2003  L 678 3150  z " transform="scale(0.015625)" />
    </defs>
    <use xlink:href="#DejaVuSans-14" transform="translate(48.25 34.840625) scale(0.7)" />
    <use xlink:href="#DejaVuSans-Oblique-34a" transform="translate(6.25 -37.098438) scale(0.7)" />
    <use xlink:href="#DejaVuSans-b" transform="translate(44.326172 -37.098438) scale(0.7)" />
    <use xlink:href="#DejaVuSans-Oblique-56" transform="translate(71.635742 -37.098438) scale(0.7)" />
    <use xlink:href="#DejaVuSans-c" transform="translate(108.105469 -37.098438) scale(0.7)" />
    <use xlink:href="#DejaVuSans-20" transform="translate(161.147461 0.465625)" />
    <use xlink:href="#DejaVuSansDisplay-e" transform="translate(264.418945 0.465625)" />
    <use xlink:href="#DejaVuSans-Oblique-53" transform="translate(286.418945 -84.640625) scale(0.7)" />
    <use xlink:href="#DejaVuSans-b" transform="translate(349.80957 0.465625)" />
    <use xlink:href="#DejaVuSans-14" transform="translate(388.823242 0.465625)" />
    <use xlink:href="#DejaVuSans-c9c" transform="translate(471.928711 0.465625)" />
    <use xlink:href="#DejaVuSans-Oblique-53" transform="translate(575.200195 0.465625)" />
    <use xlink:href="#DejaVuSans-c9c" transform="translate(643.326654 41.765625) scale(0.7)" />
    <use xlink:href="#DejaVuSans-Oblique-56" transform="translate(701.978997 41.765625) scale(0.7)" />
    <use xlink:href="#DejaVuSans-c" transform="translate(741.183099 0.465625)" />
    <use xlink:href="#DejaVuSans-20" transform="translate(799.679193 0.465625)" />
    <use xlink:href="#DejaVuSans-ca8" transform="translate(960.950677 120.91875) scale(0.7)" />
    <use xlink:href="#DejaVuSansDisplay-10" transform="translate(944.950677 0.465625)" />
    <use xlink:href="#DejaVuSans-Oblique-51" transform="translate(902.950677 -96.475) scale(0.7)" />
    <use xlink:href="#DejaVuSans-20" transform="translate(960.953607 -96.475) scale(0.7)" />
    <use xlink:href="#DejaVuSans-14" transform="translate(1033.243646 -96.475) scale(0.7)" />
    <use xlink:href="#DejaVuSans-Oblique-350" transform="translate(1084.029779 49.398437) scale(0.7)" />
    <use xlink:href="#DejaVuSans-b" transform="translate(1128.565911 49.398437) scale(0.7)" />
    <use xlink:href="#DejaVuSans-Oblique-51" transform="translate(1155.875482 49.398437) scale(0.7)" />
    <use xlink:href="#DejaVuSans-c" transform="translate(1200.240716 49.398437) scale(0.7)" />
    <use xlink:href="#DejaVuSans-Oblique-51" transform="translate(1118.029779 -40.259375) scale(0.7)" />
    <use xlink:href="#DejaVuSans-Oblique-56" transform="translate(1165.64994 -11.349375) scale(0.49)" />
    <use xlink:href="#DejaVuSans-b" transform="translate(1331.212396 0.465625)" />
    <use xlink:href="#DejaVuSans-Oblique-357" transform="translate(1370.226068 0.465625)" />
    <use xlink:href="#DejaVuSans-21" transform="translate(1453.087396 0.465625)" />
    <use xlink:href="#DejaVuSans-14" transform="translate(1556.35888 0.465625)" />
    <use xlink:href="#DejaVuSans-c" transform="translate(1619.981927 0.465625)" />
    <path d="M 6.25 22.340625  L 6.25 28.590625  L 135.415039 28.590625  L 135.415039 22.340625  L 6.25 22.340625  z " />
    <path d="M 1084.029779 22.340625  L 1084.029779 28.590625  L 1227.550286 28.590625  L 1227.550286 22.340625  L 1084.029779 22.340625  z " />
   </g>
  </g>
 </g>
</svg>